<svg xmlns="http://www.w3.org/2000/svg" xmlns:xlink="http://www.w3.org/1999/xlink" width="2000" zoomAndPan="magnify" viewBox="0 0 1500 1499.999933" height="2000" preserveAspectRatio="xMidYMid meet" version="1.0"><defs><clipPath id="b0cff8af21"><path d="M 89.15625 209 L 1410.65625 209 L 1410.65625 1298 L 89.15625 1298 Z M 89.15625 209 " clip-rule="nonzero"/></clipPath></defs><g clip-path="url(#b0cff8af21)"><path fill="#5e17eb" d="M 469.46875 1044.691406 C 394.382812 1044.898438 321.234375 1019.746094 262.296875 973.074219 C 328.75 823.558594 463.644531 623.074219 647.773438 427.09375 C 790.847656 517.007812 844.375 699.648438 772.34375 852.59375 C 713.816406 825.707031 659.421875 791.714844 613.164062 749.128906 L 714.066406 938.421875 C 650.832031 1006.40625 562.195312 1044.898438 469.46875 1044.691406 Z M 134.753906 710.183594 C 134.753906 621.546875 170.023438 536.378906 232.847656 473.558594 C 295.667969 410.738281 380.628906 375.464844 469.46875 375.464844 C 518.949219 375.464844 565.828125 386.453125 608.453125 405.574219 C 427.09375 565.828125 286.621094 752.144531 203.398438 913.269531 C 158.875 854.988281 134.792969 783.535156 134.792969 710.183594 Z M 814.554688 870.683594 C 837.808594 820.335938 849.828125 765.691406 849.828125 710.222656 C 849.828125 578.136719 782.296875 461.539062 679.867188 393.347656 C 742.6875 328.792969 808.523438 267.5 877.128906 209.429688 C 795.804688 257.628906 718.359375 312.273438 645.875 373.152344 C 484.089844 288.8125 285.34375 330.980469 171.761719 473.808594 C 58.382812 616.632812 62.472656 819.921875 181.425781 958.246094 C 108.484375 1115.941406 95.804688 1242.617188 159.90625 1285.238281 C 228.757812 1331.042969 378.027344 1248.027344 467.734375 1112.71875 C 467.734375 1112.71875 329.207031 1237.90625 252.835938 1209.078125 C 205.957031 1191.441406 205.957031 1119.824219 244.453125 1016.773438 C 309.628906 1064.726562 388.597656 1090.539062 469.46875 1090.539062 C 573.800781 1090.539062 668.011719 1048.574219 736.65625 980.839844 L 750.203125 1006.238281 C 915.828125 992.691406 1410.84375 979.765625 1410.84375 979.765625 C 1410.84375 955.890625 1083.230469 977.410156 814.304688 870.683594 Z M 814.554688 870.683594 " fill-opacity="1" fill-rule="nonzero"/></g></svg>