<svg xmlns="http://www.w3.org/2000/svg" xmlns:xlink="http://www.w3.org/1999/xlink" width="2000" zoomAndPan="magnify" viewBox="0 0 1500 1499.999933" height="2000" preserveAspectRatio="xMidYMid meet" version="1.0"><defs><clipPath id="586db96863"><path d="M 750 0 C 335.785156 0 0 335.785156 0 750 C 0 1164.214844 335.785156 1500 750 1500 C 1164.214844 1500 1500 1164.214844 1500 750 C 1500 335.785156 1164.214844 0 750 0 Z M 750 0 " clip-rule="nonzero"/></clipPath><clipPath id="3b1638156a"><path d="M 0 0 L 1500 0 L 1500 1500 L 0 1500 Z M 0 0 " clip-rule="nonzero"/></clipPath><clipPath id="618bdcd3df"><path d="M 750 0 C 335.785156 0 0 335.785156 0 750 C 0 1164.214844 335.785156 1500 750 1500 C 1164.214844 1500 1500 1164.214844 1500 750 C 1500 335.785156 1164.214844 0 750 0 Z M 750 0 " clip-rule="nonzero"/></clipPath><clipPath id="12e1e2747c"><rect x="0" width="1500" y="0" height="1500"/></clipPath><clipPath id="74c98674b2"><path d="M 865 487 L 1412.445312 487 L 1412.445312 859 L 865 859 Z M 865 487 " clip-rule="nonzero"/></clipPath></defs><g clip-path="url(#586db96863)"><g transform="matrix(1, 0, 0, 1, 0, 0.000000000000112861)"><g clip-path="url(#12e1e2747c)"><g clip-path="url(#3b1638156a)"><g clip-path="url(#618bdcd3df)"><rect x="-330" width="2160" fill="#473f34" height="2159.999904" y="-329.999985" fill-opacity="1"/></g></g></g></g></g><path fill="#000000" d="M 963.898438 874.835938 C 583.164062 1085.160156 87.195312 836.800781 94.726562 413.886719 C 106.023438 780.5 527.054688 1007.773438 870.316406 840.566406 C 940.738281 869.1875 946.199219 872.574219 963.898438 874.835938 Z M 963.898438 874.835938 " fill-opacity="1" fill-rule="nonzero"/><g clip-path="url(#74c98674b2)"><path fill="#000000" d="M 1358.753906 487.511719 C 1376.265625 487.511719 1394.71875 493.347656 1412.609375 506.90625 C 992.707031 870.691406 1021.519531 851.109375 994.78125 856.757812 C 959.378906 865.042969 936.410156 848.285156 865.796875 820.417969 C 909.292969 790.289062 927.371094 772.96875 950.152344 772.96875 C 962.582031 772.96875 967.664062 777.488281 982.730469 777.488281 C 1010.21875 777.488281 1028.671875 759.035156 1050.515625 740.957031 C 1053.527344 738.507812 1053.152344 732.109375 1048.066406 730.601562 L 880.484375 689.742188 C 1017 597.097656 978.964844 607.832031 1184.207031 590.886719 C 1228.265625 587.308594 1298.878906 487.511719 1358.753906 487.511719 Z M 1358.753906 487.511719 " fill-opacity="1" fill-rule="nonzero"/></g></svg>