<svg xmlns="http://www.w3.org/2000/svg" xmlns:xlink="http://www.w3.org/1999/xlink" width="2000" zoomAndPan="magnify" viewBox="0 0 1500 1499.999933" height="2000" preserveAspectRatio="xMidYMid meet" version="1.0"><defs><clipPath id="83c2ecf6fb"><path d="M 62.5 622 L 1437.25 622 L 1437.25 878 L 62.5 878 Z M 62.5 622 " clip-rule="nonzero"/></clipPath></defs><g clip-path="url(#83c2ecf6fb)"><path fill="#1800ad" d="M 696.257812 709.550781 C 696.257812 751.945312 673.972656 776.121094 639.367188 784.316406 C 638.96875 784.316406 694.769531 871.972656 694.769531 871.972656 L 627.164062 871.972656 L 545.46875 741.574219 L 603.101562 741.574219 C 628.023438 741.574219 637.304688 727.824219 637.304688 711.097656 C 637.304688 694.769531 628.367188 680.617188 603.503906 680.617188 L 536.070312 680.617188 L 536.070312 872.085938 L 476.601562 872.085938 L 476.601562 627.796875 L 602.988281 627.796875 C 665.78125 627.796875 696.257812 663.085938 696.257812 709.550781 M 377.03125 872.027344 L 436.5 872.027344 L 436.5 627.796875 L 377.03125 627.796875 Z M 187.050781 627.796875 L 62.5 872.027344 L 129.417969 872.027344 L 149.582031 831.121094 L 249.84375 831.121094 L 224.921875 779.847656 L 174.90625 779.847656 L 211.917969 704.679688 L 212.660156 704.679688 L 295.90625 871.972656 L 364.3125 871.972656 L 239.816406 627.851562 Z M 913.449219 745.242188 C 936.882812 753.492188 952.867188 775.035156 952.867188 803.679688 C 952.867188 844.929688 919.808594 872.085938 869.222656 872.085938 L 724.5625 872.085938 L 724.5625 627.796875 L 863.664062 627.796875 C 913.105469 627.796875 942.496094 654.207031 942.496094 693.566406 C 942.441406 718.085938 932.414062 734.816406 913.449219 745.242188 M 784.085938 722.554688 L 863.261719 722.554688 C 863.972656 722.570312 864.679688 722.550781 865.390625 722.496094 C 866.097656 722.4375 866.800781 722.347656 867.5 722.21875 C 868.195312 722.09375 868.886719 721.929688 869.570312 721.734375 C 870.25 721.539062 870.921875 721.308594 871.582031 721.042969 C 872.238281 720.777344 872.882812 720.480469 873.511719 720.152344 C 874.140625 719.824219 874.75 719.460938 875.34375 719.070312 C 875.9375 718.679688 876.507812 718.261719 877.058594 717.8125 C 877.605469 717.363281 878.132812 716.886719 878.636719 716.386719 C 879.136719 715.882812 879.613281 715.355469 880.0625 714.808594 C 880.507812 714.257812 880.929688 713.6875 881.320312 713.09375 C 881.710938 712.5 882.074219 711.890625 882.402344 711.261719 C 882.730469 710.632812 883.027344 709.988281 883.292969 709.332031 C 883.558594 708.671875 883.789062 708 883.984375 707.320312 C 884.179688 706.636719 884.34375 705.945312 884.46875 705.25 C 884.597656 704.550781 884.6875 703.847656 884.746094 703.140625 C 884.800781 702.433594 884.820312 701.722656 884.804688 701.015625 C 884.820312 700.3125 884.804688 699.609375 884.75 698.90625 C 884.699219 698.207031 884.609375 697.511719 884.488281 696.816406 C 884.363281 696.125 884.207031 695.441406 884.015625 694.765625 C 883.824219 694.085938 883.597656 693.421875 883.339844 692.769531 C 883.082031 692.113281 882.789062 691.476562 882.46875 690.851562 C 882.144531 690.226562 881.792969 689.617188 881.410156 689.03125 C 881.023438 688.441406 880.613281 687.871094 880.171875 687.324219 C 879.730469 686.777344 879.265625 686.25 878.773438 685.75 C 878.277344 685.25 877.761719 684.773438 877.222656 684.324219 C 876.679688 683.875 876.117188 683.453125 875.535156 683.0625 C 874.953125 682.667969 874.351562 682.304688 873.730469 681.972656 C 873.113281 681.640625 872.476562 681.339844 871.828125 681.070312 C 871.175781 680.800781 870.515625 680.566406 869.84375 680.363281 C 869.167969 680.160156 868.488281 679.992188 867.796875 679.859375 C 867.105469 679.722656 866.410156 679.625 865.710938 679.558594 C 865.011719 679.496094 864.308594 679.464844 863.605469 679.472656 L 784.085938 679.472656 Z M 865.097656 820.753906 C 865.933594 820.777344 866.773438 820.761719 867.609375 820.703125 C 868.449219 820.640625 869.28125 820.539062 870.105469 820.398438 C 870.933594 820.253906 871.75 820.070312 872.558594 819.84375 C 873.367188 819.617188 874.160156 819.351562 874.941406 819.042969 C 875.722656 818.738281 876.488281 818.390625 877.234375 818.007812 C 877.980469 817.625 878.707031 817.203125 879.410156 816.746094 C 880.113281 816.289062 880.792969 815.800781 881.449219 815.273438 C 882.101562 814.75 882.730469 814.191406 883.328125 813.601562 C 883.925781 813.015625 884.492188 812.398438 885.027344 811.75 C 885.5625 811.105469 886.066406 810.433594 886.53125 809.738281 C 887 809.039062 887.433594 808.320312 887.828125 807.582031 C 888.222656 806.839844 888.578125 806.082031 888.898438 805.304688 C 889.21875 804.53125 889.496094 803.738281 889.734375 802.933594 C 889.972656 802.128906 890.171875 801.316406 890.328125 800.492188 C 890.484375 799.667969 890.597656 798.835938 890.671875 798 C 890.746094 797.164062 890.773438 796.328125 890.761719 795.488281 C 890.761719 781.335938 879.589844 770.964844 865.097656 770.964844 L 784.085938 770.964844 L 784.085938 820.753906 L 865.097656 820.753906 M 1140.554688 764.261719 C 1140.554688 801.332031 1123.480469 821.898438 1089.566406 821.898438 C 1056.164062 821.898438 1039.089844 801.273438 1039.089844 764.261719 L 1039.089844 627.796875 L 978.132812 627.796875 L 978.132812 759.792969 C 978.132812 835.246094 1017.894531 877.242188 1089.621094 877.242188 C 1161.351562 877.242188 1201.511719 835.246094 1201.511719 759.792969 L 1201.511719 627.796875 L 1140.554688 627.796875 Z M 1360.210938 724.789062 C 1303.777344 711.039062 1291.460938 709.722656 1291.460938 693.566406 C 1291.460938 681.078125 1305.554688 675.003906 1329.386719 675.003906 C 1360.898438 675.003906 1394.640625 682.910156 1413.777344 694.710938 L 1432.742188 644.925781 C 1408.21875 631.921875 1372.125 622.640625 1330.132812 622.640625 C 1267.28125 622.640625 1231.992188 653.863281 1231.992188 695.855469 C 1231.992188 741.117188 1258.34375 759.449219 1318.960938 772.511719 C 1366.167969 782.941406 1376.195312 789.414062 1376.195312 802.648438 C 1376.195312 816.972656 1363.1875 823.445312 1337.523438 823.445312 C 1329.042969 823.53125 1320.589844 823.09375 1312.164062 822.125 C 1303.738281 821.160156 1295.40625 819.671875 1287.167969 817.667969 C 1278.925781 815.664062 1270.84375 813.15625 1262.914062 810.144531 C 1254.984375 807.132812 1247.277344 803.640625 1239.78125 799.667969 L 1221.5625 851.691406 C 1250.953125 867.332031 1294.78125 877.355469 1339.011719 877.355469 C 1400.714844 877.355469 1437.496094 848.710938 1437.496094 800.757812 C 1437.554688 762.199219 1412.6875 737.449219 1360.152344 724.789062 " fill-opacity="1" fill-rule="nonzero"/></g></svg>